<?xml version="1.0" encoding="UTF-8"?>
<svg width="522px" height="162px" viewBox="0 0 522 162" version="1.1" xmlns="http://www.w3.org/2000/svg" xmlns:xlink="http://www.w3.org/1999/xlink">
    <!-- Generator: Sketch 58 (84663) - https://sketch.com -->
    <title>logo</title>
    <desc>Created with Sketch.</desc>
    <g id="logo" stroke="none" stroke-width="1" fill="none" fill-rule="evenodd">
        <g id="Group-6">
            <g id="Group-5" transform="translate(225.826608, 0.000000)" fill-rule="nonzero">
                <polygon id="Combined-Shape" fill="#3A3A3C" points="8.292662 139 15.09158 126 15.114 126 41.808 77 -5.96855898e-13 0 16.742299 0 59.612 76.999 59.613742 77 59.612 77 59.613742 77.001678 59.612 77.001 32.973 126 49.84 126 65.173392 100 88.173392 139 51.173392 139 42.173392 139"></polygon>
                <polygon id="Combined-Shape" fill="#F7941E" transform="translate(91.260088, 92.500000) rotate(180.000000) translate(-91.260088, -92.500000) " points="55.466054 162 62.264971 149 62.287392 149 88.981392 100 47.173392 23 63.915691 23 106.785392 99.999 106.787133 100 106.785392 100 106.787133 100.001678 106.785392 100.001 80.146392 149 97.013392 149 112.346784 123 135.346784 162 98.346784 162 89.346784 162"></polygon>
            </g>
            <g id="Group-4" transform="translate(166.000000, 46.000000)" fill="#3A3A3C" fill-rule="nonzero">
                <path d="M0,72 L0,0 L65,-1.62265701e-15 L65,13 L13,13 L13,59 L64.5,59 L64.5,72 L12.5,72 L0,72 Z M61.5,30 L61.5,41 L21.5,41 L21.5,30 L61.5,30 Z" id="Combined-Shape"></path>
            </g>
            <g id="Group" transform="translate(0.000000, 46.000000)" fill="#3A3A3C" fill-rule="nonzero">
                <path d="M67,0 L67,13 L40,13 L40,72 L27,72 L27,13 L0,13 L0,0 L67,0 Z" id="Combined-Shape"></path>
            </g>
            <g id="Group-3" transform="translate(75.000000, 46.000000)">
                <path d="M11.530302,6.4771584 L54.140754,6.4771584 C65.733786,7.6103483 71.530302,14.277015 71.530302,26.4771584 C71.530302,38.677302 65.733786,45.343969 54.140754,46.4771584 L21.055472,46.4771584" id="Path" stroke="#3A3A3C" stroke-width="13"></path>
                <path d="M13,0 L13,72 L0,72 L0,0 L13,0 Z M59.776717,46.477158 L85.196736,72 L67,72 L44.559084,48.006267 L59.776717,46.477158 Z" id="Combined-Shape" fill="#3A3A3C" fill-rule="nonzero"></path>
            </g>
            <g id="Combined-Shape-2" transform="translate(355.000000, 46.000000)" fill="#F7941E" fill-rule="nonzero">
                <path d="M44,0 C57.650798,0 70.969865,2.6944151 78.846916,10.999166 C84.673543,17.1421608 88,27.546324 88,36 C88,48.254145 81.478237,60.346749 70.306524,66.848617 C63.352223,70.895977 53.111348,72 44,72 C33.859967,72 23.364469,70.723053 16.012571,65.807751 C6.146114,59.211277 0,47.392921 0,36 C0,25.832959 4.304615,14.4930669 12.399935,7.9466393 C20.135492,1.6911402 32.395722,0 44,0 Z M44.333333,13 C36.157592,13 27.519703,14.0804507 22.069651,18.0770196 C16.36613,22.259459 13.333333,29.50439 13.333333,36 C13.333333,43.278811 17.66355,50.829427 24.614917,55.043841 C29.794664,58.184173 37.189219,59 44.333333,59 C50.752692,59 57.967854,58.294652 62.867475,55.708839 C70.738455,51.554868 75.333333,43.829037 75.333333,36 C75.333333,30.59904 72.989693,23.951936 68.88457,20.027245 C63.334829,14.7214319 53.950941,13 44.333333,13 Z" id="Combined-Shape"></path>
            </g>
            <g id="Path-2-2" transform="translate(451.233984, 52.000953)" stroke="#F7941E" stroke-width="12">
                <path d="M-7.67386155e-13,0.254584405 L64.123037,-3.55271368e-15 C64.178265,-3.55271368e-15 64.223214,0.0443750054 64.223433,0.0996030054 C64.223538,0.125996605 64.213204,0.151361305 64.194684,0.170167005 L5.443025,59.8288803 C5.404273,59.8682303 5.404758,59.9315453 5.444109,59.9702973 C5.462816,59.9887213 5.488019,59.9990473 5.514276,59.9990473 L69.712362,59.9990473 L69.712362,59.9990473" id="Path-2"></path>
            </g>
        </g>
    </g>
</svg>